{"title":"Point of No Return (1993)Bridget Fonda+Gabriel Byrne(MULTISUBS)","uid":4439366,"size":737445132,"categoryP":"video","categoryS":"movies","magnet":"?xt=urn:btih:3c7cbbc705ad67a617c42065a2cd0aa3b5cc4a23&amp;dn=Point+of+No+Return+%281993%29Bridget+Fonda%2BGabriel+Byrne%28MULTISUBS%29&amp;tr=udp%3A%2F%2Ftracker.openbittorrent.com%3A80&amp;tr=udp%3A%2F%2Fopen.demonii.com%3A1337&amp;tr=udp%3A%2F%2Ftracker.coppersurfer.tk%3A6969&amp;tr=udp%3A%2F%2Fexodus.desync.com%3A6969","seeders":7,"leechers":1,"uploader":"Kuthumi","files":-1,"time":1223738561,"description":"Point of No Return (1993) Bridget Fonda + Gabriel Byrne (MULTISUBS) \n\naka The Assassin (1993)\nKodenavn Nina (1993) Kodnamn Nina (1993) Code Name Nina (1993) Codename Nina (1993)\n &lt;a href=&quot;\nhttp://www.imdb.com/title/tt0107843/&quot; rel=&quot;nofollow&quot; target=&quot;_NEW&quot;&gt;\nhttp://www.imdb.com/title/tt0107843/&lt;/a&gt;\n\nWith Dermot Mulroney, Harvey Keitel and Anne Bancroft\n\nOptional subtitles in separate idx/sub files:\nDanish, English, Finnish, German, French, Italian, Norwegian, Polish, Portugese, Spanish, Swedish. (Sorry, Dutch friends, your language was not on the DVD.)\n\nA young woman is forced to become a secret killer for the government. American remake of Luc Besson's 'Nikita' - in my opinion better than the original. The actors are more interesting, effects are better, and we actually see the hotel blow up.\n\nWidescreen, DVDrip XviD 2-pass 720x288, really good stereo.\nBurn tested, runs well in both my standalone DivX players.\n\nThis is a new and improved rip of the torrent I uploaded February 11, 2008. Since then, my ripping procedures have improved so much that I can offer much better quality with the same filesize, and lots of subtitles. The old torrent has been so popular that I thought it deserves an improved replacement. The old rip was 576x320 pixels with no subs.\n\nHere are the specs of this new rip:\nFormat/Info                      : Audio Video Interleave\nFile size                        : 698 MiB\nDuration                         : 1h 43mn\nOveral bit rate                  : 939 Kbps\n\nVideo\nFormat                           : MPEG-4 Visual\nFormat profile                   : Streaming Video@L1\nFormat settings, BVOP            : Yes\nFormat settings, QPel            : No\nFormat settings, GMC             : No warppoints\nFormat settings, Matrix          : Default\nMuxing mode                      : Packet Bitstream\nCodec ID                         : XVID\nCodec ID/Hint                    : XviD\nDuration                         : 1h 43mn\nBit rate                         : 801 Kbps\nWidth                            : 720 pixels\nHeight                           : 288 pixels\nDisplay aspect ratio             : 2.500\nFrame rate                       : 25.000 fps\nResolution                       : 8 bits\nColorimetry                      : 4:2:0\nScan type                        : Progressive\nBits/(Pixel*Frame)               : 0.155\nStream size                      : 595 MiB\nWriting library                  : XviD 1.2.0.dev47 (UTC 2006-11-01)\n\nAudio\nFormat                           : MPEG Audio\nFormat version                   : Version 1\nFormat profile                   : Layer 3\nCodec ID                         : 55\nCodec ID/Hint                    : MP3\nDuration                         : 1h 43mn\nBit rate mode                    : Constant\nBit rate                         : 128 Kbps\nMinimum bit rate                 : 128 Kbps\nChannel(s)                       : 2 channels\nSampling rate                    : 48.0 KHz\nResolution                       : 16 bits\nStream size                      : 95.1 MiB\nWriting library                  : LAME3.97 \nEncoding settings                : CBR\n\nSource: PAL retail (note that PAL/NTSC will give no problems for avi files)","torrent":{"xt":"urn:btih:3c7cbbc705ad67a617c42065a2cd0aa3b5cc4a23","amp;dn":"Point+of+No+Return+%281993%29Bridget+Fonda%2BGabriel+Byrne%28MULTISUBS%29","amp;tr":["udp%3A%2F%2Ftracker.openbittorrent.com%3A80","udp%3A%2F%2Fopen.demonii.com%3A1337","udp%3A%2F%2Ftracker.coppersurfer.tk%3A6969","udp%3A%2F%2Fexodus.desync.com%3A6969"],"infoHash":"3c7cbbc705ad67a617c42065a2cd0aa3b5cc4a23","infoHashBuffer":{"type":"Buffer","data":[60,124,187,199,5,173,103,166,23,196,32,101,162,205,10,163,181,204,74,35]},"announce":[],"urlList":[]}}